<?xml version="1.0" standalone="no"?>
<!DOCTYPE svg PUBLIC "-//W3C//DTD SVG 20010904//EN"
 "http://www.w3.org/TR/2001/REC-SVG-20010904/DTD/svg10.dtd">
<svg version="1.0" xmlns="http://www.w3.org/2000/svg"
 width="900.000000pt" height="940.000000pt" viewBox="0 0 900.000000 940.000000"
 preserveAspectRatio="xMidYMid meet">

<g transform="translate(0.000000,940.000000) scale(0.100000,-0.100000)"
fill="#000000" stroke="none">
<path d="M3890 9390 c-288 -28 -635 -204 -935 -474 -294 -264 -528 -712 -625
-1192 -31 -153 -39 -275 -50 -734 -32 -1346 -37 -1414 -135 -1800 -102 -403
-198 -619 -387 -867 -39 -51 -69 -95 -66 -98 12 -12 284 -115 363 -138 205
-58 348 -77 595 -77 192 0 361 16 572 56 192 35 183 43 174 -147 -21 -479 -97
-709 -298 -906 -174 -171 -338 -267 -886 -518 -1034 -472 -1456 -724 -1787
-1066 -183 -189 -293 -361 -354 -549 -50 -157 -56 -201 -56 -405 0 -241 11
-283 91 -362 l55 -53 4339 0 4338 0 55 53 c82 77 92 119 92 367 -1 214 -11
275 -75 451 -117 325 -454 675 -923 959 -242 146 -647 353 -1032 528 -554 250
-798 378 -940 491 -252 201 -356 404 -394 771 -14 129 -32 403 -27 408 2 2 93
-10 202 -27 302 -46 414 -54 639 -48 209 7 293 18 462 61 125 31 413 144 413
162 0 3 -26 38 -59 77 -196 241 -341 586 -430 1027 -70 346 -90 633 -91 1305
0 784 -27 1037 -152 1410 -156 470 -409 806 -807 1075 -182 122 -372 203 -576
245 -191 40 -421 28 -590 -30 -90 -31 -99 -31 -237 4 -108 28 -291 53 -367 50
-20 -1 -70 -5 -111 -9z"/>
</g>
</svg>
