<?xml version="1.0" standalone="no"?>
<!DOCTYPE svg PUBLIC "-//W3C//DTD SVG 20010904//EN"
 "http://www.w3.org/TR/2001/REC-SVG-20010904/DTD/svg10.dtd">
<svg version="1.0" xmlns="http://www.w3.org/2000/svg"
 width="225.000000pt" height="225.000000pt" viewBox="0 0 225.000000 225.000000"
 preserveAspectRatio="xMidYMid meet">

<g transform="translate(0.000000,225.000000) scale(0.100000,-0.100000)"
fill="#000000" stroke="none">
<path d="M965 2159 c-125 -18 -355 -105 -355 -135 0 -26 24 -25 88 4 128 59
234 84 380 89 152 6 244 -5 365 -46 151 -51 273 -127 387 -241 123 -123 203
-258 256 -435 26 -83 28 -104 28 -265 1 -154 -2 -185 -22 -254 -78 -270 -233
-473 -458 -601 l-35 -20 -34 37 c-41 45 -55 91 -55 189 0 42 -3 104 -6 138 -6
56 -9 62 -28 59 -20 -3 -21 -8 -21 -153 1 -134 3 -155 23 -200 13 -27 34 -61
48 -76 l24 -25 -46 -22 c-47 -23 -54 -45 -17 -50 25 -4 142 53 234 114 75 50
218 194 270 274 218 331 238 732 55 1076 -208 391 -637 606 -1081 543z"/>
<path d="M420 1895 c-10 -12 -10 -19 -1 -28 14 -14 46 2 46 24 0 20 -30 23
-45 4z"/>
<path d="M1001 1824 c-46 -13 -109 -38 -140 -54 -31 -16 -81 -40 -111 -53
-135 -60 -225 -189 -249 -361 -13 -93 44 -967 64 -982 9 -6 15 -27 15 -48 l0
-37 -47 33 c-170 116 -313 330 -379 568 -26 92 -27 376 -1 470 27 101 63 189
107 264 40 68 45 96 16 96 -17 0 -84 -113 -120 -205 -66 -164 -91 -367 -67
-536 59 -398 342 -731 726 -852 104 -33 220 -49 320 -45 72 3 80 5 80 23 0 18
-8 20 -82 23 l-82 3 25 36 c26 38 34 119 13 140 -25 25 -5 55 47 74 95 36 198
154 254 292 l24 57 49 0 c69 0 110 33 150 119 36 75 40 138 13 189 -28 53 -97
74 -158 47 -12 -5 -18 -3 -18 6 0 26 -54 90 -101 119 -46 28 -79 72 -79 105 0
23 -29 30 -47 12 -14 -14 -15 -22 -5 -55 7 -22 23 -51 37 -65 18 -18 22 -27
13 -30 -7 -3 1 -6 19 -6 43 -1 98 -54 112 -107 6 -23 8 -62 5 -89 -5 -34 -3
-49 7 -55 19 -13 39 8 39 40 0 43 35 80 75 80 61 0 80 -54 49 -144 -24 -69
-72 -116 -119 -116 -29 0 -36 3 -31 15 7 20 -3 45 -19 45 -19 0 -25 -12 -41
-82 -20 -85 -79 -192 -140 -255 -154 -157 -328 -115 -443 107 -76 146 -107
301 -99 495 7 169 45 266 127 324 l30 21 11 -57 c21 -100 61 -162 133 -208 22
-14 33 -16 50 -7 42 20 55 20 85 2 17 -10 49 -24 72 -31 35 -11 43 -10 51 2
15 24 11 28 -43 53 -48 21 -128 93 -128 115 0 17 -29 20 -44 5 -18 -18 -12
-37 27 -86 16 -21 24 -38 18 -38 -13 0 -92 53 -113 77 -27 29 -58 110 -64 170
-4 33 -13 57 -21 60 -41 16 -149 -72 -192 -156 -78 -153 -66 -480 25 -701 20
-47 35 -96 35 -110 -1 -17 2 -21 8 -12 6 10 13 5 29 -20 53 -85 140 -140 240
-154 41 -5 52 -10 52 -25 0 -10 -4 -21 -10 -24 -5 -3 -10 -22 -10 -42 0 -38
-31 -97 -58 -112 -27 -15 -195 34 -301 86 l-96 48 2 50 c1 28 2 55 3 60 1 6
-12 210 -28 455 -21 306 -27 463 -22 504 21 150 97 260 218 317 37 17 99 47
137 65 96 46 173 64 280 64 94 0 139 -9 218 -42 39 -17 47 -25 48 -47 0 -23 1
-24 8 -6 7 18 15 13 78 -50 80 -80 131 -176 156 -290 10 -46 21 -209 32 -470
10 -220 21 -405 26 -410 4 -6 9 -33 12 -60 l3 -50 2 52 c1 28 7 53 14 55 13 5
13 46 -8 508 -17 383 -23 421 -85 549 -72 146 -204 256 -355 295 -94 24 -231
20 -333 -10z"/>
<path d="M1416 1605 c-9 -26 -7 -32 5 -12 6 10 9 21 6 23 -2 3 -7 -2 -11 -11z"/>
<path d="M1334 1478 l-19 -23 23 19 c21 18 27 26 19 26 -2 0 -12 -10 -23 -22z"/>
<path d="M1289 1443 c-13 -16 -12 -17 4 -4 9 7 17 15 17 17 0 8 -8 3 -21 -13z"/>
<path d="M1108 1373 c6 -2 18 -2 25 0 6 3 1 5 -13 5 -14 0 -19 -2 -12 -5z"/>
<path d="M977 1363 c18 -2 50 -2 70 0 21 2 7 4 -32 4 -38 0 -55 -2 -38 -4z"/>
<path d="M1481 704 c0 -11 3 -14 6 -6 3 7 2 16 -1 19 -3 4 -6 -2 -5 -13z"/>
<path d="M689 443 l-24 -28 28 24 c25 23 32 31 24 31 -2 0 -14 -12 -28 -27z"/>
</g>
</svg>
